<svg width="25" height="25" viewBox="0 0 30 26.7"  xmlns="http://www.w3.org/2000/svg" style="enable-background:new 0 0 30 26.7;">
                        <path fill="currentColor" d="M27.5,15.7L30,4.9c0.2-0.8-0.4-1.5-1.2-1.5H8.3L7.8,1C7.7,0.4,7.2,0,6.6,0H1.3C0.6,0,0,0.6,0,1.3v0.8
                                    c0,0.7,0.6,1.3,1.3,1.3h3.6l3.7,17.9c-0.9,0.5-1.5,1.4-1.5,2.5c0,1.6,1.3,2.9,2.9,2.9s2.9-1.3,2.9-2.9c0-0.8-0.3-1.6-0.9-2.1H23
                                    c-0.5,0.5-0.9,1.3-0.9,2.1c0,1.6,1.3,2.9,2.9,2.9s2.9-1.3,2.9-2.9c0-1.2-0.7-2.2-1.6-2.6l0.3-1.3c0.2-0.8-0.4-1.5-1.2-1.5h-14
                                    L11,16.7h15.3C26.9,16.7,27.4,16.3,27.5,15.7z"></path>
                      </svg>